<?xml version="1.0" encoding="UTF-8"?>
<svg version="1.1" xmlns="http://www.w3.org/2000/svg" width="512" height="512">
<path d="M0 0 C1.01823853 0.00215515 2.03647705 0.0043103 3.08557129 0.00653076 C17.7097884 0.05623391 32.00304638 0.37042012 46.375 3.3125 C47.37160645 3.50585938 48.36821289 3.69921875 49.39501953 3.8984375 C106.77211546 15.23564078 151.94300729 44.3324198 192.375 85.3125 C190.99675583 88.4082554 189.41596882 90.51936289 187.02145386 92.90655518 C186.3287439 93.60201447 185.63603394 94.29747375 184.92233276 95.01400757 C184.16276276 95.76638702 183.40319275 96.51876648 182.62060547 97.29394531 C181.82052063 98.0943222 181.02043579 98.8946991 180.19610596 99.71932983 C177.54951263 102.36452947 174.89590472 105.00257385 172.2421875 107.640625 C170.40615034 109.47293219 168.57055414 111.30568134 166.73538208 113.13885498 C162.39712581 117.47025434 158.05444496 121.79717104 153.70958912 126.12194896 C148.76252156 131.04665149 143.82114083 135.9770433 138.8802278 140.90791941 C128.71813072 151.0491189 118.54891755 161.18315984 108.375 171.3125 C104.2501096 169.43069085 101.58420487 166.62064736 98.5 163.375 C79.21388159 143.66711757 55.39384514 130.18211119 28.375 124.3125 C26.90933594 123.99345703 26.90933594 123.99345703 25.4140625 123.66796875 C-8.97802782 117.11933785 -45.01057367 124.55104101 -74.11328125 143.87890625 C-78.8379371 147.11329375 -83.30206105 150.55707816 -87.625 154.3125 C-89.01912109 155.47265625 -89.01912109 155.47265625 -90.44140625 156.65625 C-114.86339541 177.79862393 -129.57636563 208.51018366 -133.625 240.3125 C-134.53419116 257.85299208 -134.46103062 275.32479998 -129.625 292.3125 C-129.44308105 292.97942871 -129.26116211 293.64635742 -129.07373047 294.33349609 C-123.90540521 312.86833906 -113.99304817 329.69782136 -101.625 344.3125 C-100.93664062 345.13621094 -100.24828125 345.95992188 -99.5390625 346.80859375 C-76.91490145 372.98564652 -43.38085821 387.85914811 -9.28930664 391.04345703 C27.80889799 393.66382585 63.49135342 380.43067758 91.375 356.3125 C103.63954804 345.30406499 111.87033233 332.48694611 120.375 318.3125 C80.775 318.3125 41.175 318.3125 0.375 318.3125 C0.375 278.3825 0.375 238.4525 0.375 197.3125 C82.875 197.3125 165.375 197.3125 250.375 197.3125 C258.11250151 230.8416732 260.32378637 268.36793033 253.375 302.3125 C253.18164062 303.30910645 252.98828125 304.30571289 252.7890625 305.33251953 C244.67028127 346.42132055 227.30084885 383.51549494 201.375 416.3125 C200.56289063 417.35019531 199.75078125 418.38789063 198.9140625 419.45703125 C186.24138809 435.02803025 171.68092687 449.57554845 155.375 461.3125 C154.22835128 462.16426801 153.08253275 463.01715463 151.9375 463.87109375 C143.74589798 469.91853133 135.23596602 475.30348412 126.375 480.3125 C125.66778809 480.7146875 124.96057617 481.116875 124.23193359 481.53125 C101.69703464 494.2185914 77.43201763 502.6719835 52.1875 508.0625 C51.26267822 508.26133789 50.33785645 508.46017578 49.38500977 508.66503906 C33.1783142 511.95691382 17.24462039 512.68780274 0.75 512.625 C-0.77735779 512.62176727 -0.77735779 512.62176727 -2.33557129 512.61846924 C-16.95747424 512.56877396 -31.25633932 512.26311242 -45.625 509.3125 C-46.63755859 509.11382324 -47.65011719 508.91514648 -48.69335938 508.71044922 C-89.78600049 500.49315205 -126.72136417 483.05232803 -159.625 457.3125 C-160.16415039 456.89339355 -160.70330078 456.47428711 -161.25878906 456.04248047 C-177.50359161 443.27574509 -192.55419408 428.0822445 -204.625 411.3125 C-205.47676801 410.16585128 -206.32965463 409.02003275 -207.18359375 407.875 C-213.23103133 399.68339798 -218.61598412 391.17346602 -223.625 382.3125 C-224.0271875 381.60528809 -224.429375 380.89807617 -224.84375 380.16943359 C-246.12025686 342.37870052 -256.10122101 299.93557422 -255.9375 256.75 C-255.93534485 255.72926392 -255.9331897 254.70852783 -255.93096924 253.65686035 C-255.88130885 239.01651952 -255.57934012 224.69931354 -252.625 210.3125 C-252.42632324 209.29994141 -252.22764648 208.28738281 -252.02294922 207.24414062 C-242.37869677 159.01565423 -219.79428588 114.75278873 -185.625 79.3125 C-184.96048828 78.62075684 -184.29597656 77.92901367 -183.61132812 77.21630859 C-174.17717752 67.44762856 -164.66325656 58.24665706 -153.625 50.3125 C-153.08037109 49.91772461 -152.53574219 49.52294922 -151.97460938 49.11621094 C-121.05896278 26.83714177 -86.69124612 11.73904732 -49.375 4.0625 C-48.64442383 3.91127686 -47.91384766 3.76005371 -47.16113281 3.60424805 C-31.46684491 0.57387475 -15.9450952 -0.06071045 0 0 Z " fill="#3B78E5" transform="translate(255.625,-0.3125)"/>
<path d="M0 0 C1.01823853 0.00215515 2.03647705 0.0043103 3.08557129 0.00653076 C17.7097884 0.05623391 32.00304638 0.37042012 46.375 3.3125 C47.37160645 3.50585938 48.36821289 3.69921875 49.39501953 3.8984375 C106.77211546 15.23564078 151.94300729 44.3324198 192.375 85.3125 C190.99675583 88.4082554 189.41596882 90.51936289 187.02145386 92.90655518 C186.3287439 93.60201447 185.63603394 94.29747375 184.92233276 95.01400757 C184.16276276 95.76638702 183.40319275 96.51876648 182.62060547 97.29394531 C181.82052063 98.0943222 181.02043579 98.8946991 180.19610596 99.71932983 C177.54951263 102.36452947 174.89590472 105.00257385 172.2421875 107.640625 C170.40615034 109.47293219 168.57055414 111.30568134 166.73538208 113.13885498 C162.39712581 117.47025434 158.05444496 121.79717104 153.70958912 126.12194896 C148.76252156 131.04665149 143.82114083 135.9770433 138.8802278 140.90791941 C128.71813072 151.0491189 118.54891755 161.18315984 108.375 171.3125 C104.2501096 169.43069085 101.58420487 166.62064736 98.5 163.375 C79.21388159 143.66711757 55.39384514 130.18211119 28.375 124.3125 C26.90933594 123.99345703 26.90933594 123.99345703 25.4140625 123.66796875 C-8.97802782 117.11933785 -45.01057367 124.55104101 -74.11328125 143.87890625 C-78.8379371 147.11329375 -83.30206105 150.55707816 -87.625 154.3125 C-89.01912109 155.47265625 -89.01912109 155.47265625 -90.44140625 156.65625 C-114.86339541 177.79862393 -129.57636563 208.51018366 -133.625 240.3125 C-134.53419116 257.85299208 -134.46103062 275.32479998 -129.625 292.3125 C-129.44308105 292.97942871 -129.26116211 293.64635742 -129.07373047 294.33349609 C-126.72801371 302.74579399 -123.32903677 310.41271396 -119.12792969 318.03613281 C-116.5733475 322.79771845 -116.5733475 322.79771845 -116.82351589 325.2909584 C-117.81234968 327.78504232 -119.07084615 329.12751031 -120.97218323 331.02044678 C-121.68876099 331.74114853 -122.40533875 332.46185028 -123.14363098 333.20439148 C-123.93484848 333.98482315 -124.72606598 334.76525482 -125.54125977 335.56933594 C-126.37045929 336.39897354 -127.19965881 337.22861115 -128.0539856 338.08338928 C-130.3274137 340.35508546 -132.6073603 342.61998606 -134.89036679 344.88204861 C-137.27536295 347.24829134 -139.6518665 349.62303213 -142.02928162 351.99688721 C-146.53171465 356.48999586 -151.04174038 360.97540246 -155.55453962 365.45809674 C-160.69217731 370.56220269 -165.82129934 375.67482952 -170.94972146 380.78819227 C-181.49869527 391.30580816 -192.05832303 401.81266775 -202.625 412.3125 C-205.46895038 409.49986585 -208.15009525 406.84195363 -210.38671875 403.51953125 C-210.86069092 402.81650879 -211.33466309 402.11348633 -211.82299805 401.38916016 C-212.31453369 400.6419873 -212.80606934 399.89481445 -213.3125 399.125 C-213.83432861 398.33399902 -214.35615723 397.54299805 -214.89379883 396.72802734 C-233.62384895 367.96819055 -246.31987627 336.06605527 -252.625 302.3125 C-252.78726074 301.50748047 -252.94952148 300.70246094 -253.11669922 299.87304688 C-258.60345467 271.81075586 -258.37330701 238.30515408 -252.625 210.3125 C-252.42632324 209.29994141 -252.22764648 208.28738281 -252.02294922 207.24414062 C-242.37869677 159.01565423 -219.79428588 114.75278873 -185.625 79.3125 C-184.96048828 78.62075684 -184.29597656 77.92901367 -183.61132812 77.21630859 C-174.17717752 67.44762856 -164.66325656 58.24665706 -153.625 50.3125 C-153.08037109 49.91772461 -152.53574219 49.52294922 -151.97460938 49.11621094 C-121.05896278 26.83714177 -86.69124612 11.73904732 -49.375 4.0625 C-48.64442383 3.91127686 -47.91384766 3.76005371 -47.16113281 3.60424805 C-31.46684491 0.57387475 -15.9450952 -0.06071045 0 0 Z " fill="#EB4131" transform="translate(255.625,-0.3125)"/>
<path d="M0 0 C2.42445107 2.33165118 4.30844267 4.80045723 6.20800781 7.58081055 C26.70426681 37.49085967 57.88762485 56.87871343 93.45996094 63.74926758 C122.28064748 68.92396547 156.71133338 65.44230572 181.78515625 49.1953125 C184 48 184 48 185.90668106 48.21609402 C188.46991237 49.17597276 189.77785708 50.40852804 191.70794678 52.34718323 C192.7889994 53.42204987 192.7889994 53.42204987 193.89189148 54.51863098 C194.67232315 55.30984848 195.45275482 56.10106598 196.25683594 56.91625977 C197.08647354 57.74545929 197.91611115 58.57465881 198.77088928 59.4289856 C201.04258546 61.7024137 203.30748606 63.9823603 205.56954861 66.26536679 C207.93579134 68.65036295 210.31053213 71.0268665 212.68438721 73.40428162 C217.17749586 77.90671465 221.66290246 82.41674038 226.14559674 86.92953962 C231.24970269 92.06717731 236.36232952 97.19629934 241.47569227 102.32472146 C251.99330816 112.87369527 262.50016775 123.43332303 273 134 C270.18736585 136.84395038 267.52945363 139.52509525 264.20703125 141.76171875 C263.50400879 142.23569092 262.80098633 142.70966309 262.07666016 143.19799805 C261.3294873 143.68953369 260.58231445 144.18106934 259.8125 144.6875 C259.02149902 145.20932861 258.23049805 145.73115723 257.41552734 146.26879883 C231.63028822 163.06162086 203.27715503 175.22506319 173.1875 181.875 C172.37949951 182.05385742 171.57149902 182.23271484 170.73901367 182.41699219 C167.83407255 183.01070278 164.92553406 183.51638243 162 184 C161.25170929 184.12421326 160.50341858 184.24842651 159.73245239 184.37640381 C145.45581234 186.68819061 131.5120615 187.49497701 117.0625 187.375 C116.05674927 187.37034729 115.05099854 187.36569458 114.01477051 187.36090088 C99.49489003 187.28225465 85.2666261 186.92965957 71 184 C69.98744141 183.80132324 68.97488281 183.60264648 67.93164062 183.39794922 C26.83899951 175.18065205 -10.09636417 157.73982803 -43 132 C-43.53915039 131.58089355 -44.07830078 131.16178711 -44.63378906 130.72998047 C-52.52337333 124.52958288 -59.63490031 117.56297897 -66.75 110.5 C-67.62551514 109.63383057 -68.50103027 108.76766113 -69.40307617 107.87524414 C-82.35138967 94.86324841 -82.35138967 94.86324841 -86 89 C-85.63768723 85.45769982 -84.12502957 83.75334314 -81.65281677 81.29205322 C-80.93623901 80.57135147 -80.21966125 79.85064972 -79.48136902 79.10810852 C-78.69015152 78.32767685 -77.89893402 77.54724518 -77.08374023 76.74316406 C-76.25454071 75.91352646 -75.42534119 75.08388885 -74.5710144 74.22911072 C-72.2975863 71.95741454 -70.0176397 69.69251394 -67.73463321 67.43045139 C-65.34963705 65.06420866 -62.9731335 62.68946787 -60.59571838 60.31561279 C-56.09328535 55.82250414 -51.58325962 51.33709754 -47.07046038 46.85440326 C-41.93282269 41.75029731 -36.80370066 36.63767048 -31.67527854 31.52430773 C-21.12630473 21.00669184 -10.56667697 10.49983225 0 0 Z " fill="#31AA51" transform="translate(139,325)"/>
<path d="M0 0 C5.29164268 4.42994434 10.25604568 9.08673005 15.15429688 13.94555664 C15.937211 14.71868698 16.72012512 15.49181732 17.52676392 16.28837585 C20.09390926 18.82581083 22.6569595 21.36731556 25.21875 23.91015625 C26.53490044 25.21644895 26.53490044 25.21644895 27.87763977 26.54913139 C32.03392551 30.67628464 36.18760946 34.80602915 40.33802557 38.93908507 C45.12094826 43.70156637 49.91544811 48.4520035 54.71955442 53.19311243 C58.89012747 57.31084283 63.04429374 61.44482129 67.19288635 65.58468437 C68.95811718 67.34133047 70.72849634 69.0928184 72.50401306 70.83906746 C74.97713806 73.27355921 77.43094878 75.72601753 79.88085938 78.18383789 C80.62151642 78.90449432 81.36217346 79.62515076 82.12527466 80.36764526 C82.7869162 81.03897995 83.44855774 81.71031464 84.13024902 82.4019928 C84.7120266 82.97953843 85.29380417 83.55708406 85.89321136 84.15213108 C87 86 87 86 86.77017975 88.53591061 C85.77877652 91.70777559 84.32016629 94.44629853 82.75 97.375 C78.99690162 104.66953779 76.18397857 112.09670407 74 120 C73.80245117 120.69174316 73.60490234 121.38348633 73.40136719 122.09619141 C67.32493271 144.22893271 67.72954029 169.97352897 74 192 C74.18191895 192.66692871 74.36383789 193.33385742 74.55126953 194.02099609 C76.89698629 202.43329399 80.29596323 210.10021396 84.49707031 217.72363281 C87.0516525 222.48521845 87.0516525 222.48521845 86.80148411 224.9784584 C85.81265032 227.47254232 84.55415385 228.81501031 82.65281677 230.70794678 C81.93623901 231.42864853 81.21966125 232.14935028 80.48136902 232.89189148 C79.69015152 233.67232315 78.89893402 234.45275482 78.08374023 235.25683594 C77.25454071 236.08647354 76.42534119 236.91611115 75.5710144 237.77088928 C73.2975863 240.04258546 71.0176397 242.30748606 68.73463321 244.56954861 C66.34963705 246.93579134 63.9731335 249.31053213 61.59571838 251.68438721 C57.09328535 256.17749586 52.58325962 260.66290246 48.07046038 265.14559674 C42.93282269 270.24970269 37.80370066 275.36232952 32.67527854 280.47569227 C22.12630473 290.99330816 11.56667697 301.50016775 1 312 C-1.84395038 309.18736585 -4.52509525 306.52945363 -6.76171875 303.20703125 C-7.23569092 302.50400879 -7.70966309 301.80098633 -8.19799805 301.07666016 C-8.68953369 300.3294873 -9.18106934 299.58231445 -9.6875 298.8125 C-10.20932861 298.02149902 -10.73115723 297.23049805 -11.26879883 296.41552734 C-29.99884895 267.65569055 -42.69487627 235.75355527 -49 202 C-49.16226074 201.19498047 -49.32452148 200.38996094 -49.49169922 199.56054688 C-54.97845467 171.49825586 -54.74830701 137.99265408 -49 110 C-48.80132324 108.98744141 -48.60264648 107.97488281 -48.39794922 106.93164062 C-40.70976441 68.48495766 -24.97595199 30.53904107 0 0 Z " fill="#FABC00" transform="translate(52,100)"/>
<path d="M0 0 C3.5976336 -0.03324748 7.19522662 -0.05285379 10.79296875 -0.0703125 C11.79517456 -0.07973877 12.79738037 -0.08916504 13.82995605 -0.09887695 C76.60346625 -0.32617995 137.32520906 30.70746849 181.1328125 74.08203125 C184.77307909 77.70373582 188.39353712 81.34464867 192 85 C190.62175583 88.0957554 189.04096882 90.20686289 186.64645386 92.59405518 C185.9537439 93.28951447 185.26103394 93.98497375 184.54733276 94.70150757 C183.78776276 95.45388702 183.02819275 96.20626648 182.24560547 96.98144531 C181.44552063 97.7818222 180.64543579 98.5821991 179.82110596 99.40682983 C177.17451263 102.05202947 174.52090472 104.69007385 171.8671875 107.328125 C170.03115034 109.16043219 168.19555414 110.99318134 166.36038208 112.82635498 C162.02212581 117.15775434 157.67944496 121.48467104 153.33458912 125.80944896 C148.38752156 130.73415149 143.44614083 135.6645433 138.5052278 140.59541941 C128.34313072 150.7366189 118.17391755 160.87065984 108 171 C103.8751096 169.11819085 101.20920487 166.30814736 98.125 163.0625 C72.74358313 137.12602232 40.16198002 123.04350255 3.95703125 121.24609375 C1 121 1 121 0 120 C-0.09588124 118.44379604 -0.12188033 116.88323546 -0.12025452 115.32408142 C-0.12162918 114.31300827 -0.12300385 113.30193512 -0.12442017 112.26022339 C-0.12082489 111.14173004 -0.11722961 110.02323669 -0.11352539 108.87084961 C-0.11367142 107.70027512 -0.11381744 106.52970062 -0.1139679 105.32365417 C-0.11338895 102.10479057 -0.10835991 98.88596996 -0.10139394 95.66711497 C-0.09515957 92.306526 -0.09455654 88.94593627 -0.09336853 85.58534241 C-0.09025546 79.21757658 -0.0820424 72.84982784 -0.07201904 66.48206955 C-0.06085715 59.23430271 -0.05534726 51.98653507 -0.05032361 44.73876178 C-0.03985977 29.82583165 -0.0222608 14.91291753 0 0 Z " fill="#CF2C47" transform="translate(256,0)"/>
<path d="M0 0 C2.56323131 0.95987875 3.87117602 2.19243402 5.80126572 4.13108921 C6.52196747 4.84766697 7.24266922 5.56424473 7.98521042 6.30253696 C8.76564209 7.09375446 9.54607376 7.88497196 10.35015488 8.70016575 C11.17979248 9.52936527 12.00943008 10.3585648 12.86420822 11.21289158 C15.1359044 13.48631968 17.400805 15.76626629 19.66286755 18.04927278 C22.02911028 20.43426893 24.40385107 22.81077249 26.77770615 25.1881876 C31.2708148 29.69062064 35.75622139 34.20064636 40.23891568 38.7134456 C45.34302163 43.8510833 50.45564846 48.98020532 55.56901121 54.10862744 C66.0866271 64.65760125 76.59348669 75.21722901 87.09331894 85.78390598 C84.28068479 88.62785637 81.62277257 91.30900124 78.30035019 93.54562473 C77.59732773 94.0195969 76.89430527 94.49356907 76.1699791 94.98190403 C75.42280624 95.47343967 74.67563339 95.96497532 73.90581894 96.47140598 C73.11481796 96.9932346 72.32381699 97.51506321 71.50884628 98.05270481 C42.45285395 116.97562834 10.26580693 129.75133565 -23.90668106 135.78390598 C-25.27252335 136.0272971 -25.27252335 136.0272971 -26.6659584 136.2756052 C-37.17242503 138.08166626 -47.43021006 138.9637213 -58.09418106 138.85812473 C-59.14154434 138.85276707 -60.18890762 138.8474094 -61.26800919 138.84188938 C-63.81432237 138.82808232 -66.36045507 138.80868057 -68.90668106 138.78390598 C-68.93001044 123.15512238 -68.94766043 107.52634345 -68.95849323 91.89754677 C-68.96365611 84.6413175 -68.97069864 77.38509903 -68.98212051 70.12887669 C-68.99206762 63.80656742 -68.99853455 57.48426597 -69.00076956 51.1619491 C-69.00207662 47.81233848 -69.00516219 44.46275025 -69.01241112 41.11314678 C-69.01961726 37.37976953 -69.02067218 33.6464394 -69.02020645 29.91305637 C-69.02380173 28.79456303 -69.027397 27.67606968 -69.03110123 26.52368259 C-69.02972656 25.51260944 -69.0283519 24.50153629 -69.02693558 23.45982456 C-69.02785737 22.57582509 -69.02877916 21.69182562 -69.02972889 20.78103828 C-68.90668106 18.78390598 -68.90668106 18.78390598 -67.90668106 17.78390598 C-66.50924588 17.61629644 -65.10463972 17.50772589 -63.69964981 17.42453098 C-43.28767533 16.0257644 -21.64770255 12.33559172 -4.12152481 0.97921848 C-1.90668106 -0.21609402 -1.90668106 -0.21609402 0 0 Z " fill="#0F9D58" transform="translate(324.906681060791,373.2160940170288)"/>
</svg>
